<?xml version="1.0" standalone="no"?>
<!DOCTYPE svg PUBLIC "-//W3C//DTD SVG 20010904//EN"
 "http://www.w3.org/TR/2001/REC-SVG-20010904/DTD/svg10.dtd">
<svg version="1.0" xmlns="http://www.w3.org/2000/svg"
 width="983.000000pt" height="1024.000000pt" viewBox="0 0 983.000000 1024.000000"
 preserveAspectRatio="xMidYMid meet">

<g transform="translate(0.000000,1024.000000) scale(0.100000,-0.100000)"
fill="#000000" stroke="none">
<path d="M5355 10031 c-11 -5 -272 -165 -580 -355 -595 -369 -635 -398 -656
-481 -9 -34 -14 -42 -30 -38 -56 15 -122 -20 -737 -399 -339 -208 -632 -393
-650 -411 -57 -55 -66 -100 -112 -527 -23 -217 -44 -396 -45 -398 -1 -2 -175
63 -386 144 l-384 148 -100 0 c-84 1 -106 -2 -140 -21 -79 -42 -1191 -735
-1212 -755 -13 -12 -32 -41 -44 -66 -19 -38 -21 -56 -16 -125 4 -72 31 -163
212 -717 113 -349 213 -646 222 -660 22 -33 56 -59 116 -91 34 -17 46 -28 38
-34 -7 -4 -22 -26 -32 -49 -38 -84 -34 -102 167 -719 102 -315 195 -601 206
-637 16 -52 30 -75 70 -113 46 -46 49 -50 33 -67 -39 -43 -34 -61 158 -645
102 -309 195 -583 208 -610 13 -28 42 -67 64 -88 22 -21 260 -169 530 -328
501 -296 534 -312 565 -274 11 13 15 9 33 -26 11 -23 37 -54 58 -69 22 -15
276 -169 566 -341 503 -299 529 -313 584 -317 47 -4 65 0 93 17 33 20 34 21
29 2 -6 -25 17 -69 59 -107 32 -31 1026 -616 1110 -654 54 -24 111 -25 163 -1
41 18 1099 852 1170 922 l40 39 -1 83 c0 69 -58 382 -119 643 -4 17 33 51 220
199 223 176 255 207 255 243 0 14 6 18 23 15 16 -2 141 85 502 352 264 195
496 372 515 394 39 43 390 777 390 815 0 12 -5 27 -10 32 -8 8 1 19 27 37 21
15 47 41 58 59 10 18 115 227 232 463 198 401 233 485 201 485 -7 0 -1 10 14
23 19 15 114 198 310 597 248 508 282 582 286 633 2 32 -1 69 -7 85 -15 36
-1257 1160 -1309 1185 -26 12 -55 17 -102 15 l-65 -3 -1 65 c-1 110 -9 119
-347 412 -167 145 -432 376 -590 513 -158 138 -311 263 -340 278 -44 25 -61
28 -110 25 -49 -4 -57 -2 -51 11 16 41 14 87 -4 117 -11 17 -105 104 -209 195
-104 90 -370 322 -592 514 -222 193 -413 355 -424 362 -25 14 -92 16 -122 4z
m118 -63 c12 -6 211 -174 442 -373 231 -199 466 -401 523 -449 57 -50 105 -99
108 -112 15 -60 16 -59 -518 -415 -282 -188 -526 -346 -544 -350 -21 -6 -43
-5 -67 3 -39 15 -1078 920 -1095 954 -20 42 -3 62 122 141 729 463 972 613
988 613 11 0 29 -5 41 -12z m-1343 -915 c51 -35 1010 -894 1026 -918 19 -29
22 -91 6 -121 -18 -34 -1010 -716 -1057 -727 -31 -7 -52 -5 -92 10 -46 16
-118 78 -565 492 -282 260 -520 483 -529 495 -20 26 -30 67 -21 83 4 6 257
167 562 357 517 323 558 346 600 346 27 0 56 -7 70 -17z m3280 -798 c278 -240
522 -454 543 -475 45 -48 52 -103 15 -137 -28 -26 -946 -686 -975 -702 -31
-16 -84 -14 -120 7 -49 27 -1090 969 -1096 992 -13 51 -51 23 967 717 41 28
57 33 105 33 l56 0 505 -435z m-1952 -87 c34 -34 -6 -90 -48 -68 -35 19 -20
80 20 80 9 0 21 -5 28 -12z m599 -851 c370 -325 534 -475 546 -499 22 -47 22
-110 0 -136 -10 -11 -182 -138 -383 -283 -201 -144 -386 -277 -411 -295 l-46
-34 -36 54 c-36 54 -91 104 -159 145 -21 12 -232 96 -470 187 l-433 164 -162
163 c-144 145 -163 167 -163 196 0 18 7 45 16 60 10 16 222 169 537 384 l521
357 57 0 56 0 530 -463z m2265 125 c15 -9 277 -239 582 -511 586 -521 575
-509 564 -582 -2 -18 -110 -103 -458 -362 -250 -186 -475 -351 -499 -367 -50
-34 -116 -40 -163 -16 -25 13 -968 856 -1090 975 -61 58 -70 84 -45 128 7 12
230 187 496 388 l483 365 52 0 c31 0 61 -7 78 -18z m-2062 -131 c19 -16 32
-32 29 -35 -3 -4 -37 23 -75 60 -63 60 -41 48 46 -25z m-3375 -82 c46 -13 893
-333 943 -356 46 -22 58 -52 39 -90 -11 -21 -167 -132 -559 -399 -560 -380
-613 -411 -689 -401 -55 7 -967 368 -995 394 -30 27 -31 62 -3 97 24 31 1089
745 1128 756 38 12 91 11 136 -1z m1160 -119 c0 -29 -4 -36 -23 -38 -43 -6
-69 37 -40 66 7 7 24 12 38 10 21 -3 25 -8 25 -38z m2856 -270 c28 -16 25 -58
-6 -72 -21 -9 -28 -8 -45 7 -24 22 -25 33 -3 57 19 21 27 22 54 8z m172 -428
c377 -342 1056 -971 1069 -991 27 -40 23 -92 -9 -123 -39 -36 -971 -757 -1008
-779 -34 -22 -90 -24 -123 -6 -12 7 -267 241 -566 520 -544 507 -545 508 -555
559 -9 41 -9 55 3 73 11 17 743 565 1005 753 35 26 54 32 93 32 42 0 54 -5 91
-38z m-5615 -24 c39 -39 -17 -100 -58 -63 -24 22 -25 38 -4 59 18 19 45 21 62
4z m1296 -541 c38 -27 -2 -95 -41 -71 -25 16 -29 55 -7 71 10 7 21 13 24 13 3
0 14 -6 24 -13z m700 -468 c281 -121 527 -231 548 -244 23 -15 45 -43 62 -77
28 -59 346 -1274 346 -1324 0 -18 -3 -39 -6 -48 -15 -38 -72 -18 -517 185
-243 111 -471 215 -505 232 -73 35 -133 89 -160 144 -30 60 -373 1227 -375
1276 -2 55 15 77 61 77 23 0 202 -72 546 -221z m4968 95 c11 -23 10 -29 -11
-45 -21 -17 -26 -18 -45 -6 -41 27 -27 77 20 77 17 0 28 -9 36 -26z m-4202
-255 c14 -25 8 -44 -19 -59 -17 -8 -24 -7 -41 10 -24 24 -25 34 -4 54 22 22
51 20 64 -5z m4010 -150 c0 -23 -403 -875 -423 -896 -44 -45 -1002 -793 -1016
-793 -10 0 -12 11 -8 43 5 47 289 723 334 795 22 36 126 123 493 409 256 201
491 384 523 409 57 42 97 56 97 33z m750 -136 c0 -12 -409 -845 -423 -862 -20
-24 -889 -673 -909 -679 -12 -3 -18 1 -18 12 0 34 374 798 410 837 48 53 901
699 923 699 9 0 17 -3 17 -7z m-1995 -563 c0 -32 -3 -35 -32 -38 -24 -2 -34 2
-43 17 -17 34 4 63 43 59 29 -3 32 -6 32 -38z m-956 -197 c25 -26 37 -74 154
-623 70 -327 127 -613 127 -635 0 -69 -40 -136 -116 -197 -237 -189 -914 -703
-943 -715 -46 -19 -117 -12 -143 15 -30 30 -310 1205 -305 1279 7 108 7 108
582 515 286 203 529 373 540 378 39 17 76 11 104 -17z m1690 -240 c-6 -16 -92
-201 -192 -413 l-182 -384 -425 -343 -425 -343 -11 53 c-6 28 -17 72 -24 97
-12 45 -11 47 75 270 89 231 115 278 182 334 32 27 812 643 923 729 19 15 47
27 62 27 25 0 26 -2 17 -27z m-5876 -661 c214 -119 409 -234 433 -256 25 -21
53 -55 64 -75 31 -61 320 -995 320 -1034 0 -42 -33 -72 -66 -61 -50 17 -802
464 -844 502 -27 23 -58 61 -69 85 -19 39 -253 754 -306 936 -29 98 -30 114
-9 135 14 14 19 14 52 0 20 -8 212 -113 425 -232z m2871 186 c8 -14 7 -21 -6
-34 -30 -30 -75 9 -48 42 16 18 39 15 54 -8z m2536 -568 c0 -28 -226 -559
-248 -583 -9 -11 -105 -88 -213 -172 l-197 -153 -32 156 c-18 85 -35 171 -37
191 -6 43 -50 3 380 344 299 238 347 268 347 217z m-4180 -285 c250 -130 467
-249 482 -263 15 -14 36 -44 47 -68 25 -52 291 -1054 291 -1094 0 -39 -32 -61
-71 -50 -42 12 -846 486 -899 529 -86 72 -91 84 -245 599 -139 463 -162 561
-137 586 20 22 114 -21 532 -239z m3317 -100 c13 -9 27 -32 32 -53 39 -144
241 -1112 241 -1152 0 -106 15 -91 -526 -520 -273 -216 -513 -399 -535 -408
-45 -18 -78 -8 -103 30 -8 13 -76 284 -151 602 -100 423 -136 590 -132 618 3
21 17 54 31 73 26 34 983 777 1041 808 38 21 75 21 102 2z"/>
</g>
</svg>
